HIERARCHY
ROOT Hips
{
  OFFSET 0.0000 88.1582 0.0000
  CHANNELS 6 Xposition Yposition Zposition Yrotation Xrotation Zrotation
  JOINT Spine
  {
    OFFSET 0.0000 12.4674 0.0000
    CHANNELS 3 Yrotation Xrotation Zrotation
    JOINT Spine1
    {
      OFFSET 0.0000 12.2380 0.0000
      CHANNELS 3 Yrotation Xrotation Zrotation
      JOINT Spine2
      {
        OFFSET 0.0000 11.5142 0.0000
        CHANNELS 3 Yrotation Xrotation Zrotation
        JOINT LeftShoulder
        {
          OFFSET 6.6026 9.6620 0.0000
          CHANNELS 3 Yrotation Xrotation Zrotation
          JOINT LeftArm
          {
            OFFSET 0.0000 12.6234 0.0000
            CHANNELS 3 Yrotation Xrotation Zrotation
            JOINT LeftForeArm
            {
              OFFSET -0.0001 24.4780 0.0000
              CHANNELS 3 Yrotation Xrotation Zrotation
              JOINT LeftHand
              {
                OFFSET 0.0000 26.9540 0.0000
                CHANNELS 3 Yrotation Xrotation Zrotation
                JOINT LeftHandIndex1
                {
                  OFFSET -2.4222 7.6359 0.0974
                  CHANNELS 3 Yrotation Xrotation Zrotation
                  JOINT LeftHandIndex2
                  {
                    OFFSET 0.0000 4.3320 0.0000
                    CHANNELS 3 Yrotation Xrotation Zrotation
                    JOINT LeftHandIndex3
                    {
                      OFFSET 0.0000 2.6652 0.0000
                      CHANNELS 3 Yrotation Xrotation Zrotation
                      End Site
                      {
                        OFFSET 0.0000 1.3566 0.0000
                      }
                    }
                  }
                }
                JOINT LeftHandMiddle1
                {
                  OFFSET -0.5154 7.6951 0.0974
                  CHANNELS 3 Yrotation Xrotation Zrotation
                  JOINT LeftHandMiddle2
                  {
                    OFFSET 0.0000 4.4473 0.0000
                    CHANNELS 3 Yrotation Xrotation Zrotation
                    JOINT LeftHandMiddle3
                    {
                      OFFSET 0.0000 2.9333 0.0000
                      CHANNELS 3 Yrotation Xrotation Zrotation
                      End Site
                      {
                        OFFSET 0.0000 1.4991 0.0000
                      }
                    }
                  }
                }
                JOINT LeftHandPinky1
                {
                  OFFSET 2.9666 6.6373 0.0975
                  CHANNELS 3 Yrotation Xrotation Zrotation
                  JOINT LeftHandPinky2
                  {
                    OFFSET 0.0000 3.3612 0.0000
                    CHANNELS 3 Yrotation Xrotation Zrotation
                    JOINT LeftHandPinky3
                    {
                      OFFSET 0.0000 2.1128 0.0000
                      CHANNELS 3 Yrotation Xrotation Zrotation
                      End Site
                      {
                        OFFSET 0.0000 1.1205 0.0000
                      }
                    }
                  }
                }
                JOINT LeftHandRing1
                {
                  OFFSET 1.3623 7.3832 0.0975
                  CHANNELS 3 Yrotation Xrotation Zrotation
                  JOINT LeftHandRing2
                  {
                    OFFSET 0.0000 4.1539 0.0000
                    CHANNELS 3 Yrotation Xrotation Zrotation
                    JOINT LeftHandRing3
                    {
                      OFFSET 0.0000 2.6790 0.0000
                      CHANNELS 3 Yrotation Xrotation Zrotation
                      End Site
                      {
                        OFFSET 0.0000 1.3500 0.0000
                      }
                    }
                  }
                }
                JOINT LeftHandThumb1
                {
                  OFFSET -2.6352 1.9662 0.0890
                  CHANNELS 3 Yrotation Xrotation Zrotation
                  JOINT LeftHandThumb2
                  {
                    OFFSET 0.0000 3.7470 0.0000
                    CHANNELS 3 Yrotation Xrotation Zrotation
                    JOINT LeftHandThumb3
                    {
                      OFFSET 0.0000 2.8440 0.0000
                      CHANNELS 3 Yrotation Xrotation Zrotation
                      End Site
                      {
                        OFFSET 0.0000 1.7295 0.0000
                      }
                    }
                  }
                }
              }
            }
          }
        }
        JOINT Neck
        {
          OFFSET 0.0000 16.9498 0.0000
          CHANNELS 3 Yrotation Xrotation Zrotation
          JOINT Head
          {
            OFFSET 0.0000 10.3509 0.0000
            CHANNELS 3 Yrotation Xrotation Zrotation
            End Site
            {
              OFFSET 0.0000 8.0220 0.0000
            }
          }
        }
        JOINT RightShoulder
        {
          OFFSET -6.6026 9.6620 0.0000
          CHANNELS 3 Yrotation Xrotation Zrotation
          JOINT RightArm
          {
            OFFSET 0.0000 12.6234 0.0000
            CHANNELS 3 Yrotation Xrotation Zrotation
            JOINT RightForeArm
            {
              OFFSET 0.0000 24.4781 0.0000
              CHANNELS 3 Yrotation Xrotation Zrotation
              JOINT RightHand
              {
                OFFSET -0.0001 26.9540 0.0000
                CHANNELS 3 Yrotation Xrotation Zrotation
                JOINT RightHandIndex1
                {
                  OFFSET 2.4222 7.6360 0.0974
                  CHANNELS 3 Yrotation Xrotation Zrotation
                  JOINT RightHandIndex2
                  {
                    OFFSET 0.0000 4.3321 -0.0001
                    CHANNELS 3 Yrotation Xrotation Zrotation
                    JOINT RightHandIndex3
                    {
                      OFFSET 0.0000 2.6652 0.0000
                      CHANNELS 3 Yrotation Xrotation Zrotation
                      End Site
                      {
                        OFFSET 0.0000 1.3566 0.0000
                      }
                    }
                  }
                }
                JOINT RightHandMiddle1
                {
                  OFFSET 0.5154 7.6952 0.0974
                  CHANNELS 3 Yrotation Xrotation Zrotation
                  JOINT RightHandMiddle2
                  {
                    OFFSET 0.0000 4.4473 -0.0001
                    CHANNELS 3 Yrotation Xrotation Zrotation
                    JOINT RightHandMiddle3
                    {
                      OFFSET 0.0000 2.9333 0.0000
                      CHANNELS 3 Yrotation Xrotation Zrotation
                      End Site
                      {
                        OFFSET 0.0000 1.4991 0.0000
                      }
                    }
                  }
                }
                JOINT RightHandPinky1
                {
                  OFFSET -2.9667 6.6374 0.0974
                  CHANNELS 3 Yrotation Xrotation Zrotation
                  JOINT RightHandPinky2
                  {
                    OFFSET 0.0000 3.3613 -0.0001
                    CHANNELS 3 Yrotation Xrotation Zrotation
                    JOINT RightHandPinky3
                    {
                      OFFSET 0.0000 2.1128 0.0000
                      CHANNELS 3 Yrotation Xrotation Zrotation
                      End Site
                      {
                        OFFSET 0.0000 1.1205 0.0000
                      }
                    }
                  }
                }
                JOINT RightHandRing1
                {
                  OFFSET -1.3624 7.3833 0.0974
                  CHANNELS 3 Yrotation Xrotation Zrotation
                  JOINT RightHandRing2
                  {
                    OFFSET 0.0000 4.1540 -0.0001
                    CHANNELS 3 Yrotation Xrotation Zrotation
                    JOINT RightHandRing3
                    {
                      OFFSET 0.0000 2.6790 0.0000
                      CHANNELS 3 Yrotation Xrotation Zrotation
                      End Site
                      {
                        OFFSET 0.0000 1.3500 0.0000
                      }
                    }
                  }
                }
                JOINT RightHandThumb1
                {
                  OFFSET 2.6352 1.9663 0.0889
                  CHANNELS 3 Yrotation Xrotation Zrotation
                  JOINT RightHandThumb2
                  {
                    OFFSET 0.0000 3.7470 -0.0001
                    CHANNELS 3 Yrotation Xrotation Zrotation
                    JOINT RightHandThumb3
                    {
                      OFFSET 0.0000 2.8440 -0.0001
                      CHANNELS 3 Yrotation Xrotation Zrotation
                      End Site
                      {
                        OFFSET 0.0000 1.7295 0.0000
                      }
                    }
                  }
                }
              }
            }
          }
        }
      }
    }
  }
  JOINT LeftUpLeg
  {
    OFFSET 7.5966 0.0000 0.0000
    CHANNELS 3 Yrotation Xrotation Zrotation
    JOINT LeftLeg
    {
      OFFSET 0.0000 40.5152 0.0000
      CHANNELS 3 Yrotation Xrotation Zrotation
      JOINT LeftFoot
      {
        OFFSET 0.0000 40.6090 0.0000
        CHANNELS 3 Yrotation Xrotation Zrotation
        JOINT LeftToeBase
        {
          OFFSET 0.0000 13.6671 0.0000
          CHANNELS 3 Yrotation Xrotation Zrotation
          End Site
          {
            OFFSET 0.0000 3.5000 0.0000
          }
        }
      }
    }
  }
  JOINT RightUpLeg
  {
    OFFSET -7.5966 0.0000 0.0000
    CHANNELS 3 Yrotation Xrotation Zrotation
    JOINT RightLeg
    {
      OFFSET 0.0000 40.5153 0.0000
      CHANNELS 3 Yrotation Xrotation Zrotation
      JOINT RightFoot
      {
        OFFSET 0.0000 40.6090 0.0000
        CHANNELS 3 Yrotation Xrotation Zrotation
        JOINT RightToeBase
        {
          OFFSET 0.0000 13.6671 0.0000
          CHANNELS 3 Yrotation Xrotation Zrotation
          End Site
          {
            OFFSET 0.0000 3.5000 0.0000
          }
        }
      }
    }
  }
}
MOTION
Frames: 4
Frame Time: 0.033333
10.8217 88.0639 10.0700 -4.1250 0.3027 -0.7580 0.2884 0.1898 -0.3781 0.2884 0.1899 -0.3781 0.2892 0.1904 -0.3792 120.0909 86.6184 20.8174 70.9394 54.2897 65.0111 13.5972 -4.6360 92.5105 -24.3922 -7.4614 19.1964 3.1527 42.7545 -11.2830 0.0000 46.8728 0.0001 0.0000 31.3454 -0.0008 -19.8077 41.1153 -28.8565 0.0002 57.1117 0.0003 0.0001 38.2532 0.0002 -41.8289 28.1705 -42.6561 -0.0002 36.3707 0.0004 -0.0001 24.2936 -0.0006 -32.8644 33.6272 -37.8154 0.0000 45.3792 0.0000 0.0000 30.3409 -0.0001 63.1123 19.8941 45.5360 -6.4750 1.4422 -36.1271 -1.5838 13.2273 -13.5944 6.6395 2.5456 5.1550 6.6395 2.5456 5.1550 139.3984 83.5577 -118.2555 62.6852 79.0858 13.1228 3.4789 -19.6931 -86.6872 -5.9184 -9.5159 -9.6805 -0.5093 1.0632 33.7388 0.0000 12.8181 0.0000 0.0000 8.5467 0.0002 -12.0646 1.5981 40.8324 0.0000 18.4658 -0.0001 0.0000 12.3165 0.0000 -11.0769 -12.3820 53.5717 0.0000 24.8240 0.0001 0.0000 16.5638 0.0002 -9.2560 -6.6491 45.5400 0.0000 19.1143 0.0000 0.0000 12.7486 0.0000 -31.6812 19.7631 -29.8475 6.0438 13.6678 28.6802 1.8142 14.1204 14.5699 0.0511 -2.5060 179.5912 0.0186 -12.2592 0.0836 7.8744 72.9626 13.1445 0.0000 25.9724 0.0000 -0.6520 2.2700 -178.9837 0.0199 -4.2940 -0.0846 -5.9811 70.5687 -11.2070 0.0000 26.0186 -0.0001 
10.7936 88.0624 10.0607 -4.1468 0.2844 -0.7506 0.2870 0.1811 -0.3843 0.2870 0.1812 -0.3843 0.2878 0.1817 -0.3855 120.2653 86.6176 20.9802 70.9122 54.3209 64.9543 13.6341 -4.6320 92.5168 -24.4173 -7.5015 19.1864 3.2007 42.7663 -11.2478 0.0000 46.8572 0.0000 0.0000 31.3349 -0.0008 -19.8076 41.1160 -28.8592 0.0001 57.1128 0.0003 0.0001 38.2540 0.0002 -41.8243 28.1665 -42.6574 -0.0002 36.3768 0.0003 -0.0001 24.2977 -0.0006 -32.8611 33.6216 -37.8145 0.0000 45.3838 0.0000 0.0000 30.3439 -0.0001 63.1147 19.9010 45.5346 -6.4717 1.4407 -36.1192 -1.5829 13.2237 -13.5905 6.6315 2.5472 5.1253 6.6315 2.5472 5.1253 139.5256 83.5571 -118.1288 61.9773 79.1093 12.4396 3.5766 -19.7052 -86.6328 -5.9158 -9.4893 -9.6866 -0.4468 1.2974 33.7066 0.0000 12.7880 0.0000 0.0000 8.5267 0.0002 -11.9887 1.7143 40.7734 0.0000 18.3722 -0.0001 0.0000 12.2540 0.0000 -11.0485 -12.3617 53.5560 0.0000 24.8387 0.0001 -0.0001 16.5736 0.0002 -9.1401 -6.5083 45.4920 0.0000 19.1730 0.0000 0.0000 12.7878 0.0000 -31.6567 19.7511 -29.8370 6.0411 13.7189 28.6582 1.8161 14.1277 14.5779 0.0525 -2.5090 179.6018 0.0188 -12.2935 0.0848 7.7022 72.9806 12.9906 0.0000 25.9727 0.0000 -0.6366 2.2503 -178.9711 0.0205 -4.3569 -0.0844 -6.0164 70.5991 -11.2488 0.0000 26.0185 -0.0001 
10.7678 88.0609 10.0509 -4.1571 0.2688 -0.7412 0.2834 0.1757 -0.3926 0.2834 0.1758 -0.3926 0.2843 0.1763 -0.3937 120.3433 86.6186 21.0579 70.8914 54.3296 64.9423 13.6338 -4.6336 92.5138 -24.4473 -7.5489 19.1565 3.2071 42.7641 -11.2529 0.0000 46.8746 0.0001 0.0000 31.3467 -0.0008 -19.8059 41.1155 -28.8577 0.0001 57.1153 0.0002 0.0001 38.2557 0.0001 -41.8221 28.1659 -42.6534 -0.0002 36.3784 0.0003 -0.0001 24.2988 -0.0006 -32.8643 33.6255 -37.8100 0.0000 45.3779 0.0000 0.0000 30.3400 -0.0001 63.1170 19.9046 45.5374 -6.4705 1.4409 -36.1158 -1.5826 13.2225 -13.5891 6.6316 2.5311 5.1049 6.6316 2.5311 5.1049 139.4701 83.5461 -118.1868 61.8709 79.1702 12.3310 3.6269 -19.7389 -86.6072 -5.9295 -9.3431 -9.7353 -0.3280 1.3887 33.6692 0.0000 12.6493 0.0000 0.0000 8.4341 0.0002 -11.8646 1.7448 40.7257 0.0000 18.3350 -0.0001 0.0000 12.2291 0.0000 -10.9926 -12.3759 53.5204 0.0000 24.8404 0.0001 0.0000 16.5747 0.0002 -8.9160 -6.4174 45.4133 0.0000 19.1059 -0.0001 0.0000 12.7430 0.0000 -31.6185 19.7595 -29.8262 6.0246 13.7287 28.6097 1.8123 14.1135 14.5623 0.0453 -2.5185 179.6083 0.0174 -12.3325 0.0863 7.6376 72.9862 12.9445 0.0000 25.9726 0.0000 -0.6305 2.2259 -178.9624 0.0208 -4.4251 -0.0841 -6.0659 70.6293 -11.3005 0.0000 26.0184 -0.0001 
10.7465 88.0603 10.0385 -4.1655 0.2523 -0.7362 0.2831 0.1724 -0.3986 0.2831 0.1725 -0.3986 0.2839 0.1730 -0.3998 120.5985 86.6146 21.3234 70.8918 54.3197 64.9888 13.6038 -4.6348 92.5145 -24.4590 -7.6036 19.1101 3.2285 42.7673 -11.2352 0.0000 46.8936 0.0000 0.0000 31.3594 -0.0008 -19.8030 41.1117 -28.8564 0.0001 57.1202 0.0002 0.0001 38.2590 0.0001 -41.8196 28.1646 -42.6504 -0.0002 36.3805 0.0003 -0.0001 24.3002 -0.0006 -32.8704 33.6329 -37.8116 -0.0001 45.3696 -0.0001 0.0000 30.3344 -0.0002 63.1194 19.9072 45.5420 -6.4698 1.4410 -36.1136 -1.5824 13.2217 -13.5883 6.6189 2.5141 5.0989 6.6189 2.5141 5.0989 139.4514 83.5311 -118.2102 62.4598 79.1873 12.9085 3.5638 -19.7200 -86.6170 -5.8619 -9.3415 -9.7977 -0.2813 1.4410 33.6554 0.0000 12.6291 0.0000 0.0000 8.4206 0.0002 -11.8549 1.8357 40.6942 0.0000 18.4034 -0.0001 0.0000 12.2748 0.0000 -10.9604 -12.3658 53.5100 0.0000 24.8542 0.0001 0.0000 16.5840 0.0002 -8.8113 -6.2419 45.3703 0.0000 18.9331 -0.0001 0.0000 12.6276 -0.0001 -31.6010 19.7529 -29.8278 6.0257 13.7644 28.6025 1.8144 14.1214 14.5710 0.0362 -2.5007 179.6159 0.0171 -12.3185 0.0864 7.5539 72.9798 12.8822 0.0000 25.9726 0.0000 -0.6204 2.2170 -178.9517 0.0211 -4.4601 -0.0834 -6.0752 70.6439 -11.3207 0.0000 26.0183 -0.0001 
